<svg xmlns="http://www.w3.org/2000/svg" width="304.81" height="84.71" viewBox="0 0 304.81 84.71"><path fill="#ffffff" d="M13.81 11.93H0V.7h39.55v11.23H25.74V84H13.81zM56.85.7H76q21.1 0 21.1 24.45a30.9 30.9 0 0 1-2.28 12.46 17.63 17.63 0 0 1-8 8.37L99.67 84H87L75.92 48.44h-7.14V84H56.85zm11.93 37.21h6.79a12 12 0 0 0 5-.88 6.47 6.47 0 0 0 2.87-2.52 10.72 10.72 0 0 0 1.35-4 38.82 38.82 0 0 0 .35-5.56 38.84 38.84 0 0 0-.35-5.56 10 10 0 0 0-1.46-4.09 6.63 6.63 0 0 0-3.1-2.52 14.09 14.09 0 0 0-5.23-.85h-6.2zM118 .7h11.93V84H118zM161.23 11.93h-13.8V.7H187v11.23h-13.83V84h-11.94zM203.52 20.36a21.29 21.29 0 0 1 1.75-8.89 18.55 18.55 0 0 1 4.62-6.38 20 20 0 0 1 6.44-3.8 20.76 20.76 0 0 1 14.39 0 20 20 0 0 1 6.44 3.8 18.57 18.57 0 0 1 4.62 6.38 21.29 21.29 0 0 1 1.75 8.89v44a21.18 21.18 0 0 1-1.75 9 18.69 18.69 0 0 1-4.62 6.32 19.91 19.91 0 0 1-6.44 3.8 20.76 20.76 0 0 1-14.39 0 19.88 19.88 0 0 1-6.44-3.8 18.66 18.66 0 0 1-4.62-6.32 21.18 21.18 0 0 1-1.75-9zm11.93 44q0 4.33 2.4 6.38a8.89 8.89 0 0 0 11.35 0q2.4-2 2.4-6.38v-44q0-4.33-2.4-6.38a8.89 8.89 0 0 0-11.35 0q-2.4 2-2.4 6.38zM263.16.7h11.47l18 50.19h.23V.7h11.93V84h-11.21l-18.25-50.07h-.23V84h-11.94z"/></svg>